<mxfile host="app.diagrams.net" modified="2023-11-29T02:21:51.515Z" agent="Mozilla/5.0 (Windows NT 10.0; Win64; x64) AppleWebKit/537.36 (KHTML, like Gecko) Chrome/119.0.0.0 Safari/537.36" etag="LKKri1ie05vPrBprw2FY" version="22.1.4" type="device">
  <diagram name="Page-1" id="5ASUeKVkmtETmqR-dcqN">
    <mxGraphModel dx="1050" dy="617" grid="1" gridSize="10" guides="1" tooltips="1" connect="1" arrows="1" fold="1" page="1" pageScale="1" pageWidth="850" pageHeight="1100" math="0" shadow="0">
      <root>
        <mxCell id="0" />
        <mxCell id="1" parent="0" />
        <mxCell id="CmyC4vvOVO6ciq9OWNYT-1" value="" style="rounded=0;whiteSpace=wrap;html=1;" vertex="1" parent="1">
          <mxGeometry x="189" y="370" width="100" height="60" as="geometry" />
        </mxCell>
        <mxCell id="CmyC4vvOVO6ciq9OWNYT-2" value="" style="rhombus;whiteSpace=wrap;html=1;" vertex="1" parent="1">
          <mxGeometry x="329" y="230" width="100" height="80" as="geometry" />
        </mxCell>
        <mxCell id="CmyC4vvOVO6ciq9OWNYT-5" value="" style="ellipse;whiteSpace=wrap;html=1;" vertex="1" parent="1">
          <mxGeometry x="329" y="110" width="100" height="60" as="geometry" />
        </mxCell>
        <mxCell id="CmyC4vvOVO6ciq9OWNYT-6" value="" style="ellipse;whiteSpace=wrap;html=1;" vertex="1" parent="1">
          <mxGeometry x="199" y="110" width="100" height="60" as="geometry" />
        </mxCell>
        <mxCell id="CmyC4vvOVO6ciq9OWNYT-7" value="" style="ellipse;whiteSpace=wrap;html=1;" vertex="1" parent="1">
          <mxGeometry x="464" y="110" width="100" height="60" as="geometry" />
        </mxCell>
        <mxCell id="CmyC4vvOVO6ciq9OWNYT-8" value="" style="endArrow=none;html=1;rounded=0;exitX=0.5;exitY=0;exitDx=0;exitDy=0;entryX=0.5;entryY=1;entryDx=0;entryDy=0;" edge="1" parent="1" source="CmyC4vvOVO6ciq9OWNYT-2" target="CmyC4vvOVO6ciq9OWNYT-6">
          <mxGeometry width="50" height="50" relative="1" as="geometry">
            <mxPoint x="649" y="420" as="sourcePoint" />
            <mxPoint x="699" y="370" as="targetPoint" />
          </mxGeometry>
        </mxCell>
        <mxCell id="CmyC4vvOVO6ciq9OWNYT-9" value="" style="endArrow=none;html=1;rounded=0;exitX=0.5;exitY=0;exitDx=0;exitDy=0;entryX=0.5;entryY=1;entryDx=0;entryDy=0;" edge="1" parent="1" source="CmyC4vvOVO6ciq9OWNYT-2" target="CmyC4vvOVO6ciq9OWNYT-5">
          <mxGeometry width="50" height="50" relative="1" as="geometry">
            <mxPoint x="649" y="420" as="sourcePoint" />
            <mxPoint x="699" y="370" as="targetPoint" />
          </mxGeometry>
        </mxCell>
        <mxCell id="CmyC4vvOVO6ciq9OWNYT-10" value="" style="endArrow=none;html=1;rounded=0;exitX=0.5;exitY=0;exitDx=0;exitDy=0;entryX=0.5;entryY=1;entryDx=0;entryDy=0;" edge="1" parent="1" source="CmyC4vvOVO6ciq9OWNYT-2" target="CmyC4vvOVO6ciq9OWNYT-7">
          <mxGeometry width="50" height="50" relative="1" as="geometry">
            <mxPoint x="649" y="420" as="sourcePoint" />
            <mxPoint x="699" y="370" as="targetPoint" />
          </mxGeometry>
        </mxCell>
        <mxCell id="CmyC4vvOVO6ciq9OWNYT-11" value="" style="ellipse;whiteSpace=wrap;html=1;" vertex="1" parent="1">
          <mxGeometry x="40" y="310" width="100" height="60" as="geometry" />
        </mxCell>
        <mxCell id="CmyC4vvOVO6ciq9OWNYT-12" value="" style="ellipse;whiteSpace=wrap;html=1;" vertex="1" parent="1">
          <mxGeometry x="40" y="430" width="100" height="60" as="geometry" />
        </mxCell>
        <mxCell id="CmyC4vvOVO6ciq9OWNYT-13" value="" style="ellipse;whiteSpace=wrap;html=1;" vertex="1" parent="1">
          <mxGeometry x="45" y="220" width="90" height="50" as="geometry" />
        </mxCell>
        <mxCell id="CmyC4vvOVO6ciq9OWNYT-14" value="" style="endArrow=none;html=1;rounded=0;exitX=0.5;exitY=0;exitDx=0;exitDy=0;entryX=0.5;entryY=1;entryDx=0;entryDy=0;" edge="1" parent="1" source="CmyC4vvOVO6ciq9OWNYT-11" target="CmyC4vvOVO6ciq9OWNYT-13">
          <mxGeometry width="50" height="50" relative="1" as="geometry">
            <mxPoint x="280" y="230" as="sourcePoint" />
            <mxPoint x="330" y="180" as="targetPoint" />
          </mxGeometry>
        </mxCell>
        <mxCell id="CmyC4vvOVO6ciq9OWNYT-15" value="" style="endArrow=none;html=1;rounded=0;exitX=0;exitY=0.5;exitDx=0;exitDy=0;entryX=0.5;entryY=1;entryDx=0;entryDy=0;" edge="1" parent="1" source="CmyC4vvOVO6ciq9OWNYT-1" target="CmyC4vvOVO6ciq9OWNYT-11">
          <mxGeometry width="50" height="50" relative="1" as="geometry">
            <mxPoint x="280" y="230" as="sourcePoint" />
            <mxPoint x="330" y="180" as="targetPoint" />
          </mxGeometry>
        </mxCell>
        <mxCell id="CmyC4vvOVO6ciq9OWNYT-16" value="" style="endArrow=none;html=1;rounded=0;exitX=0.5;exitY=0;exitDx=0;exitDy=0;entryX=0;entryY=0.5;entryDx=0;entryDy=0;" edge="1" parent="1" source="CmyC4vvOVO6ciq9OWNYT-12" target="CmyC4vvOVO6ciq9OWNYT-1">
          <mxGeometry width="50" height="50" relative="1" as="geometry">
            <mxPoint x="280" y="230" as="sourcePoint" />
            <mxPoint x="330" y="180" as="targetPoint" />
          </mxGeometry>
        </mxCell>
        <mxCell id="CmyC4vvOVO6ciq9OWNYT-17" value="User" style="swimlane;childLayout=stackLayout;horizontal=1;startSize=50;horizontalStack=0;rounded=1;fontSize=14;fontStyle=0;strokeWidth=2;resizeParent=0;resizeLast=1;shadow=0;dashed=0;align=center;arcSize=4;whiteSpace=wrap;html=1;" vertex="1" parent="1">
          <mxGeometry x="490" y="270" width="160" height="120" as="geometry" />
        </mxCell>
        <mxCell id="CmyC4vvOVO6ciq9OWNYT-18" value="+Name&lt;br&gt;+Id&lt;br&gt;+Height&lt;br&gt;+Weight&lt;br&gt;+" style="align=left;strokeColor=none;fillColor=none;spacingLeft=4;fontSize=12;verticalAlign=top;resizable=0;rotatable=0;part=1;html=1;" vertex="1" parent="CmyC4vvOVO6ciq9OWNYT-17">
          <mxGeometry y="50" width="160" height="70" as="geometry" />
        </mxCell>
        <mxCell id="CmyC4vvOVO6ciq9OWNYT-19" value="" style="endArrow=none;html=1;rounded=0;exitX=0.5;exitY=0;exitDx=0;exitDy=0;entryX=0;entryY=0.5;entryDx=0;entryDy=0;" edge="1" parent="1" source="CmyC4vvOVO6ciq9OWNYT-1" target="CmyC4vvOVO6ciq9OWNYT-2">
          <mxGeometry relative="1" as="geometry">
            <mxPoint x="220" y="200" as="sourcePoint" />
            <mxPoint x="380" y="200" as="targetPoint" />
            <Array as="points">
              <mxPoint x="240" y="270" />
            </Array>
          </mxGeometry>
        </mxCell>
        <mxCell id="CmyC4vvOVO6ciq9OWNYT-21" value="" style="endArrow=none;html=1;rounded=0;exitX=1;exitY=0.5;exitDx=0;exitDy=0;entryX=0.5;entryY=1;entryDx=0;entryDy=0;" edge="1" parent="1" source="CmyC4vvOVO6ciq9OWNYT-1" target="CmyC4vvOVO6ciq9OWNYT-2">
          <mxGeometry relative="1" as="geometry">
            <mxPoint x="220" y="200" as="sourcePoint" />
            <mxPoint x="380" y="200" as="targetPoint" />
            <Array as="points">
              <mxPoint x="380" y="400" />
            </Array>
          </mxGeometry>
        </mxCell>
      </root>
    </mxGraphModel>
  </diagram>
</mxfile>
